# Blender v2.92.0 OBJ File: ''
# www.blender.org
mtllib Handle.mtl
o Cube
v 0.113580 0.594977 -2.359733
v 0.419400 -0.134720 -2.346185
v 0.593653 0.052926 2.209347
v 0.052926 -0.593653 2.209347
v -0.466060 0.358551 -2.356202
v -0.169554 -0.385110 -2.350408
v -0.052926 0.593653 2.209347
v -0.593653 -0.052926 2.209347
v -1.000000 -1.000000 1.000000
v -1.000000 1.000000 1.000000
v 1.000000 1.000000 1.000000
v 1.000000 -1.000000 1.000000
vt 0.625000 0.500000
vt 0.875000 0.500000
vt 0.875000 0.750000
vt 0.625000 0.750000
vt 0.375000 0.750000
vt 0.625000 0.750000
vt 0.625000 1.000000
vt 0.375000 1.000000
vt 0.375000 0.000000
vt 0.625000 0.000000
vt 0.625000 0.250000
vt 0.375000 0.250000
vt 0.125000 0.500000
vt 0.375000 0.500000
vt 0.375000 0.750000
vt 0.125000 0.750000
vt 0.625000 1.000000
vt 0.375000 1.000000
vn -0.0905 0.9847 -0.1487
vn 0.0000 0.0000 1.0000
vn -0.9745 -0.1057 -0.1978
vn 0.0944 -0.9728 -0.2115
vn 0.9727 0.1080 -0.2054
vn 0.0052 -0.0110 -0.9999
vn -0.8751 0.1788 0.4497
vn 0.8751 -0.1788 0.4497
vn 0.1788 0.8751 0.4497
vn -0.1788 -0.8751 0.4497
usemtl Material
s off
f 1/1/1 5/2/1 10/3/1 11/4/1
f 4/5/2 3/6/2 7/7/2 8/8/2
f 9/9/3 10/10/3 5/11/3 6/12/3
f 6/13/4 2/14/4 12/15/4 9/16/4
f 2/14/5 1/1/5 11/4/5 12/15/5
f 6/12/6 5/11/6 1/1/6 2/14/6
f 8/8/7 7/7/7 10/17/7 9/18/7
f 3/6/8 4/5/8 12/15/8 11/4/8
f 7/7/9 3/6/9 11/4/9 10/17/9
f 4/5/10 8/8/10 9/18/10 12/15/10
